<?xml version="1.0" encoding="UTF-8"?> <svg xmlns="http://www.w3.org/2000/svg" height="511pt" viewBox="-28 1 511 511.99843" width="511pt"><path d="m456.429688 178.351562c.710937-34.636718-19.632813-65.789062-51.152344-79.257812-4.597656-29.554688-28.417969-52.65625-58.019532-56.570312-.265624-2.945313-.824218-5.878907-1.671874-8.777344-5.21875-17.824219-20.9375-31.246094-39.089844-33.398438-11.601563-1.378906-23.046875 1.546875-32.367188 8.085938-8.28125-5.480469-17.914062-8.433594-27.789062-8.433594-25.429688 0-46.5625 18.785156-50.242188 43.210938-.90625.183593-1.78125.441406-2.667968.65625-.835938-2.019532-1.699219-4.011719-2.679688-5.949219-12.992188-25.722657-35.941406-40.675781-57.207031-37.242188-13.957031 2.265625-25.519531 11.75-32.304688 26.050781-12.273437-5.648437-24.796875-6.609374-36.113281-2.625-12.066406 4.253907-21.441406 13.335938-27.109375 26.277344-7.515625 17.148438-7.523437 39.195313-.257813 60.167969-9.792968 6.726563-17.113281 16.605469-21.390624 28.996094-7.195313 20.804687-4.792969 45.90625 6.582031 68.898437 1.246093 2.507813 2.605469 5 4.089843 7.445313-10.679687 6.945312-18.679687 17.246093-22.964843 29.8125-6.8125 19.941406-3.796875 43.441406 8.269531 64.449219 5.542969 9.652343 12.882812 18.394531 21.429688 25.582031-2.855469 11.953125-.695313 25.089843 6.261718 36.980469 9.792969 16.707031 27.402344 27.964843 45.957032 29.773437 29.226562 54.886719 65.488281 78.457031 121.292968 102.113281l.621094.269532c7.847656 4.917968 16.792969 7.132812 25.644531 7.132812 5.257813 0 10.441407-.8125 15.335938-2.199219.078125-.027343.160156-.015625.238281-.042969.039062-.015624.0625-.042968.097656-.0625 4.164063-1.21875 8.128906-2.828124 11.652344-4.882812 16.882812-9.855469 23.722656-26.691406 17.84375-43.929688-16.863281-49.480468-15.492188-86.640624 4.082031-110.425781 33.878907-41.152343 112.480469-31.039062 113.253907-30.90625l9.144531 1.242188.914062-9.179688c.125-1.207031 2.75-29.867187-13.972656-49.335937-.96875-1.128906-1.988281-2.207032-3.050781-3.230469 4.722656-1.046875 9.402344-2.542969 13.992187-4.492187 31.722657-13.410157 52.671875-43.3125 53.347657-76.203126zm-356.988282 211.4375-2.492187-4.890624-5.488281.035156c-.078126 0-.160157 0-.230469 0-14.007813 0-28.390625-8.5-35.835938-21.222656-5.425781-9.265626-6.535156-19.378907-3.050781-27.75l2.703125-6.484376-5.675781-4.132812c-8.742188-6.371094-16.214844-14.6875-21.601563-24.070312-9.511719-16.570313-12.019531-34.742188-6.859375-49.84375 3.863282-11.296876 11.609375-19.621094 22.40625-24.085938l10.539063-4.351562-6.785157-9.152344c-3.175781-4.292969-5.933593-8.769532-8.175781-13.296875-9.132812-18.464844-11.277343-39.097657-5.710937-55.1875 3.683594-10.675781 10.425781-18.609375 19.480468-22.933594l7.613282-3.644531-3.246094-7.800782-.394531-.84375c-7.816407-18.464843-8.699219-38.097656-2.328125-52.613281 2.535156-5.789062 7.507812-13.386719 16.730468-16.632812 8.875-3.128907 19.488282-.960938 29.9375 6.066406l10.265626 6.921875 3.273437-11.945312c3.679687-13.394532 11.648437-22.03125 21.878906-23.683594 13.332031-2.269532 29.128907 9.222656 38.460938 27.6875.746093 1.484375 1.441406 2.996094 2.082031 4.546875-.207031.113281-.375.265625-.578125.382812-1.824219 1.082031-3.59375 2.257813-5.292969 3.519531-1.023437.75-1.984375 1.546876-2.953125 2.359376-.648437.542968-1.28125 1.101562-1.902343 1.660156-3.578126 3.210937-6.75 6.789062-9.484376 10.691406-.203124.292969-.390624.589844-.59375.882812-1.574218 2.328126-2.980468 4.746094-4.234374 7.265626-.3125.613281-.632813 1.226562-.925782 1.847656-.542968 1.195312-1.039062 2.394531-1.507812 3.621094-.5 1.28125-.925782 2.578124-1.335938 3.894531-.339844 1.097656-.675781 2.179687-.949218 3.300781-.492188 1.914062-.875 3.863281-1.175782 5.835938-.105468.722656-.203125 1.433593-.292968 2.164062-.292969 2.4375-.488282 4.898438-.488282 7.40625 0 1.628906.070313 3.253906.195313 4.910156-33.710938 6.0625-58.882813 35.351563-58.882813 70.546875 0 10.175781 2.195313 20.261719 6.414063 29.539063-9.472657 10.132812-14.792969 23.464844-14.792969 37.535156 0 21.027344 12.078125 40.097656 30.640625 49.277344-.042969 4.757812.027344 9.390625.1875 13.9375.054687 1.484375.167969 2.925781.242187 4.394531.148438 3.023437.328126 6.039063.578126 8.980469.140624 1.683594.335937 3.328125.503906 4.980468.277344 2.660157.578125 5.304688.945312 7.890626.230469 1.691406.496094 3.371093.765625 5.035156.398438 2.492187.835938 4.953125 1.316407 7.390625.320312 1.644531.65625 3.28125 1.011718 4.910156.535156 2.425781 1.121094 4.839844 1.734375 7.222656.394531 1.539063.785157 3.074219 1.203125 4.597657.703125 2.5 1.46875 4.960937 2.257813 7.40625.429687 1.34375.835937 2.703124 1.292969 4.039062 1.003906 2.945312 2.105468 5.855469 3.246093 8.753906.3125.789063.585938 1.609375.90625 2.398438 1.484375 3.664062 3.078125 7.304687 4.773438 10.90625.480469 1.023437 1.015625 2.035156 1.511719 3.050781 1.253906 2.578125 2.527343 5.148437 3.890624 7.710937.726563 1.371094 1.511719 2.742188 2.277344 4.117188 1.21875 2.199219 2.445313 4.394531 3.742188 6.574219.878906 1.484375 1.796875 2.96875 2.703125 4.445312 1.273437 2.074219 2.570312 4.144531 3.914062 6.21875.988281 1.53125 2 3.058594 3.023438 4.589844 1.378906 2.054687 2.792969 4.109375 4.242187 6.171875 1.066406 1.53125 2.144532 3.058594 3.253906 4.589844 1.523438 2.097656 3.097657 4.214844 4.679688 6.332031 1.128906 1.503906 2.230469 3.007813 3.398438 4.519531 1.726562 2.25 3.53125 4.527344 5.335937 6.804688 1.101563 1.394531 2.167969 2.773437 3.300781 4.179687.097656.125.195313.25.292969.375-32.667969-18.199219-55.757813-40.328125-75.886719-79.855469zm257.273438-148.515624-2.367188-.394532-8.609375 1.992188-.945312 19.628906 8.878906.472656c10.949219.558594 19.09375 4.109375 24.902344 10.824219 7.054687 8.15625 9.1875 19.410156 9.765625 27.15625-24.46875-1.59375-86.675782-1.355469-119.238282 38.136719-23.800781 28.863281-26.226562 71.761718-7.230468 127.511718 4.207031 12.355469-4.445313 19.605469-9.980469 22.832032-.390625.234375-.835937.382812-1.234375.597656-17.398438-42.800781-28.257812-80.878906-34.109375-114.660156-.039063-.214844-.054687-.417969-.097656-.621094-4.625-26.949219-6.128907-51.167969-5.257813-72.863281 12.453125-21.230469 49.054688-22.085938 49.425782-22.09375 4.910156-.082031 8.832031-4.109375 8.761718-9.019531-.070312-4.875-4.027344-8.769532-8.882812-8.769532-.039063 0-.070313 0-.109375 0-1.449219.015625-26.808594.570313-46.925781 13.183594 2.453124-17.613281 6.539062-33.214844 11.597656-47.070312.5-.605469.953125-1.265626 1.289062-2.019532.519532-1.136718.757813-2.332031.773438-3.503906 6.378906-16.046875 14.054687-29.511719 22.042968-40.746094 39.878907-8.296875 69.96875 4.179688 70.636719 4.457032 1.167969.515624 2.375.746093 3.550781.746093 3.425782 0 6.6875-1.992187 8.15625-5.316406 1.972657-4.5-.082031-9.75-4.574218-11.722656-1.234375-.542969-25.773438-11.011719-61.058594-8.441407 17.230469-17.976562 32.367188-26.125 34.617188-27.269531 12.921874-6.191406 31.804687 1.804688 38.003906 5.425781 1.414062.835938 2.960937 1.226563 4.5 1.226563 3.042968 0 6.015625-1.566406 7.667968-4.375 2.492188-4.234375 1.09375-9.679687-3.148437-12.175781-1.015625-.605469-21.011719-12.167969-41.492187-9.847656 1.75-7.210938 5.636718-13.765626 7.621093-16.398438 2.980469-3.898438 2.230469-9.472656-1.671875-12.453125-3.886718-2.980469-9.484375-2.25-12.460937 1.664063-.5625.71875-12.230469 16.195312-12.203125 34.011718-12.941406 7.925782-46.375 31.949219-69.769532 80.226563-1.261718 2.597656-2.480468 5.390625-3.691406 8.195312-24.261718-16.589843-20.269531-46.101562-20.046875-47.53125.757813-4.839843-2.542969-9.386719-7.390625-10.160156-4.839844-.816406-9.410156 2.535156-10.183594 7.382813-2.578124 16.144531 1.121094 49.410156 31.085938 67.277343-6.617188 19.464844-11.632812 42.695313-13.183594 70.117188-.175781.863281-.214844 1.699219-.140625 2.550781-.925781 19.222656-.035156 40.542969 3.058594 63.890625-11.277344-6.207031-16.4375-15.289063-16.765625-15.902344-2.320312-4.316406-7.675781-5.96875-11.996094-3.683593-4.34375 2.285156-6.023437 7.667968-3.726562 12.015624.46875.902344 11.117187 20.582032 35.726562 28.1875 5.976563 32.804688 16.480469 69.476563 32.847656 110.210938-5.621093-.078125-11.164062-1.476562-15.894531-4.457031l.007813-.023438c-.957032-.617187-1.757813-1.210937-2.542969-1.816406-.96875-.789063-1.949219-1.5625-2.800781-2.515625-.042969-.046875-.097656-.089844-.140625-.136719l-3.738281-4.25c-55.695313-64.101562-83.574219-110.992187-81.355469-189.40625l.1875-6.484375-6.121094-2.152344c-14.84375-5.257812-24.824219-19.34375-24.824219-35.054687 0-11.179687 4.964844-21.664063 13.609375-28.761719l5.835938-4.785156-3.789063-6.539062c-4.757812-8.226563-7.277344-17.558594-7.277344-26.976563 0-28.996094 22.71875-52.648437 51.714844-53.863281l10.804688-.453125-2.527344-10.515625c-.871094-3.609375-1.304688-7.195313-1.304688-10.625 0-2.730469.300782-5.390625.773438-8.007813.113281-.667969.300781-1.304687.441406-1.957031.464844-2.035156 1.042969-4.039062 1.769532-5.964844.195312-.535156.402343-1.058594.625-1.585937.96875-2.285157 2.070312-4.507813 3.386718-6.589844.054688-.078125.089844-.167969.140625-.25 2.867188-4.480469 6.523438-8.402344 10.730469-11.660156.578125-.445313 1.191406-.835938 1.785156-1.253907 1.425782-.996093 2.902344-1.894531 4.429688-2.722656.960937-.515625 1.921875-1.011718 2.925781-1.457031 4.679687-2.109375 9.730469-3.566406 15.09375-3.964844l8.21875-.625v-8.269531l-.015625-.695312c.300781-17.984376 15.003906-32.535157 33.058594-32.535157 8.042968 0 15.871094 3.0625 22.03125 8.621094l6.238281 5.628906 5.976563-5.90625c6.277343-6.207031 14.898437-9.179687 23.820312-8.117187 11.167969 1.316406 20.863281 9.648437 24.101562 20.730468 1.078126 3.65625 1.398438 7.375.960938 11.046876l-.917969 9.917968h10.007813c26.035156 0 47.816406 20.351563 49.605468 46.332032l.410157 5.839843 5.523437 1.941407c27.242188 9.550781 45.136719 35.335937 44.542969 64.164062-.535156 25.882812-17.214844 49.496094-42.480469 60.167969-12.71875 5.355469-25.625 6.367187-39.445312 3.105469zm0 0"></path></svg> 