<?xml version="1.0" encoding="UTF-8"?> <!-- Generator: Adobe Illustrator 18.1.1, SVG Export Plug-In . SVG Version: 6.00 Build 0) --> <svg xmlns="http://www.w3.org/2000/svg" xmlns:xlink="http://www.w3.org/1999/xlink" id="Capa_1" x="0px" y="0px" viewBox="0 0 498.911 498.911" style="enable-background:new 0 0 498.911 498.911;" xml:space="preserve"> <g> <g> <path style="fill:#010002;" d="M335.722,59.706l0.317-0.845c-2.268-0.854-56.038-20.468-95.275,1.179 c-2.951,1.626-5.666,3.495-8.291,5.479l-10.494-41.96c-23.305,5.828-44.642,15.461-63.582,28.011l0.317-0.845 c-2.268-0.845-56.03-20.451-95.267,1.187c-17.858,9.852-29.694,26.263-35.213,48.836c-6.145,6.527-19.354,22.89-18.704,42.277 c0.285,8.559,3.544,21.102,17.379,32.262c3.991,3.219,6.3,6.283,6.495,8.633c0.374,4.536-5.877,11.543-10.9,17.168 c-6.942,7.779-14.119,15.834-12.924,25.987c0.008,1.349-1.593,5.324-2.764,8.234c-5.942,14.835-15.908,39.667,11.055,73.864 c10.965,13.908,10.307,23.134,9.616,32.904c-1.317,18.484,0.528,33.652,36.489,46.544c5.974,2.146,11.526,4.097,16.68,5.918 c41.505,14.615,48.942,18.086,49.43,28.889c0.919,20.33,32.669,38.529,61.728,42.781c4.641,0.675,9.161,1.008,13.534,1.008 c28.377,0,50.527-14.201,61.696-39.432c1.536,0.033,3.048,0.195,4.585,0.195c11.234,0,22.589-1.008,33.977-2.918 c1.179,1.935,1.691,4.024,1.805,6.503c0.919,20.33,32.669,38.529,61.728,42.781c4.641,0.675,9.161,1.008,13.534,1.008 c28.377,0,50.527-14.201,61.696-39.432c1.536,0.033,3.048,0.195,4.593,0.195c16.485,0,33.23-2,49.95-6.178L399.312,31.695 C376.007,37.523,354.669,47.147,335.722,59.706z M252.485,81.434c18.875-10.453,44.228-7.421,60.111-3.885 c-25.377,22.646-44.74,51.226-56.347,83.001l-16.948-67.768C242.918,88.124,247.267,84.319,252.485,81.434z M259.077,403.049 c-77.66-5.357-143.591-59.916-162.75-136.495C74.136,177.831,121.932,87.717,204.64,54.723l8.486,33.921l9.445,37.773 l21.963,87.829l31.84,127.31l11.494,45.943l3.739,14.948c-6.649,0.74-13.323,1.114-19.98,1.114 C267.409,403.577,263.239,403.333,259.077,403.049z M205.03,442.814c-26.499-0.146-48.869-15.753-50.592-20.508 c-1.268-28.092-22.801-35.676-65.679-50.779c-5.113-1.805-10.624-3.739-16.558-5.869c-21.403-7.673-21.167-10.965-20.395-21.85 c0.805-11.315,2.024-28.409-14.786-49.731c-18.224-23.118-12.803-36.627-7.568-49.682c2.39-5.966,4.869-12.128,4.471-18.72 c1.057-1.935,4.463-5.755,6.779-8.356c7.69-8.624,18.224-20.443,17.005-35.392c-0.772-9.323-5.975-17.948-15.493-25.621 c-5.397-4.349-8.112-8.95-8.299-14.038c-0.406-10.77,9.787-22.768,13.713-26.45l2.869-2.642l0.805-3.82 c3.625-17.379,11.437-29.165,23.882-36.05c18.875-10.445,44.228-7.421,60.111-3.885c-55.12,49.162-81.782,126.448-62.623,203.052 C93.352,355.139,161.486,413.34,240.747,425.5C232.952,437.091,220.93,443.017,205.03,442.814z M382.689,450.943 c-0.114,0-0.228,0-0.341,0c-26.499-0.146-48.869-15.753-50.592-20.508c-0.593-13.12-5.666-21.752-15.217-28.775l-4.544-18.167 c29.539,26.475,66.41,44.057,106.086,50.145C410.399,445.09,398.572,450.943,382.689,450.943z M448.953,411.706 c-61.558,0-117.043-31.019-149.875-79.912l-29.791-119.116c6.706-65.898,49.414-124.587,112.686-149.826l86.968,347.732 C462.284,411.332,455.61,411.706,448.953,411.706z"></path> <path style="fill:#010002;" d="M361.758,123.93c-4.666-2.398-10.38-1.423-13.209,3.308c-2.569,4.276-1.366,10.811,3.308,13.209 c1.935,0.992,3.715,2.04,4.633,2.861c0.667,0.593,1.244,1.276,1.821,1.951c-0.211-0.171,0.301,0.658,0.642,1.195 c-0.008,0.154,0.585,1.634,0.61,1.748c0.057,0.236,0.089,0.358,0.13,0.496c-0.033,0.098-0.065,0.341-0.057,0.951 c0,0.398,0.016,0.626,0.024,0.78c-0.049,0.146-0.114,0.382-0.219,0.886c-0.179,0.854-0.845,2.788-0.984,3.081 c-2.219,4.755-1.553,10.299,3.3,13.209c4.154,2.487,10.99,1.463,13.209-3.308c3.357-7.178,5.178-14.818,2.756-22.622 C375.267,133.7,369.057,127.685,361.758,123.93z"></path> <path style="fill:#010002;" d="M340.81,234.218c-4.942,2.707-5.877,8.259-3.812,13.079c3.658,8.551,3.829,16.574-1.463,24.361 c-6.991,10.291,9.567,20.143,16.517,9.909c9.258-13.632,8.064-28.97,1.837-43.537C351.816,233.194,345.078,231.886,340.81,234.218 z"></path> <path style="fill:#010002;" d="M407.66,344.873c-7.064,10.234,9.502,20.078,16.517,9.909c9.527-13.81,5.462-29.702-4.227-42.065 c-3.243-4.137-10.104-3.682-13.615-0.325c-4.081,3.894-3.56,9.494-0.325,13.615C410.87,332.225,411.976,338.622,407.66,344.873z"></path> <path style="fill:#010002;" d="M194.618,123.597c-2.853-3.186-6.34-5.82-10.177-7.795c-4.666-2.398-10.38-1.422-13.209,3.308 c-2.569,4.276-1.366,10.811,3.308,13.209c1.935,0.992,3.715,2.04,4.633,2.861c0.667,0.593,1.244,1.276,1.821,1.951 c-0.211-0.171,0.301,0.658,0.642,1.195c-0.008,0.154,0.585,1.634,0.61,1.748c0.057,0.236,0.089,0.358,0.13,0.496 c-0.033,0.098-0.065,0.341-0.057,0.951c0,0.398,0.016,0.626,0.024,0.78c-0.049,0.146-0.114,0.382-0.219,0.886 c-0.179,0.853-0.845,2.788-0.984,3.081c-2.219,4.755-1.553,10.299,3.308,13.209c1.162,0.699,2.544,1.049,3.967,1.187 c3.658,0.358,7.641-1.065,9.242-4.495c3.357-7.178,5.178-14.818,2.756-22.622C199.243,129.766,197.186,126.466,194.618,123.597z"></path> <path style="fill:#010002;" d="M163.485,226.09c-4.942,2.707-5.877,8.259-3.812,13.079c3.658,8.551,3.829,16.574-1.463,24.361 c-6.991,10.291,9.567,20.143,16.517,9.909c1.057-1.553,1.935-3.129,2.723-4.723c2.894-5.828,4.056-11.9,3.926-18.037 c-0.146-6.926-1.894-13.932-4.82-20.769C174.491,225.066,167.753,223.757,163.485,226.09z"></path> <path style="fill:#010002;" d="M229.01,304.271c-4.081,3.894-3.56,9.494-0.325,13.615c4.869,6.21,5.975,12.607,1.65,18.858 c-0.423,0.618-0.756,1.227-1.016,1.837c-1.032,2.398-0.821,4.698,0.138,6.657c2.845,5.812,12.461,8.568,17.395,1.414 c9.527-13.81,5.462-29.702-4.227-42.065C239.39,300.458,232.529,300.905,229.01,304.271z"></path> </g> </g> <g> </g> <g> </g> <g> </g> <g> </g> <g> </g> <g> </g> <g> </g> <g> </g> <g> </g> <g> </g> <g> </g> <g> </g> <g> </g> <g> </g> <g> </g> </svg> 